# xmcd
#
# Track frame offsets:
# 150
# 28574
# 48267
# 69118
# 88689
# 106113
# 123692
# 140685
# 163298
# 183782
# 202771
# 225240
# 248114
# 272564
# 289345
# 312406
#
# Disc length: 4438 seconds
#
# Revision: 0
# Processed by: cddbd v1.5.1PL2 Copyright (c) Steve Scherf et al.
# Submitted via: Audion 3.0.2 (http://www.panic.com/audion/)
#
DISCID=d8115410
DTITLE=Various Artist - Endzeit Bunkertracks [act II], damage session
DYEAR=1900
DGENRE=
TTITLE0=Necrotek - Spectre
TTITLE1=Skalpell - Sanatorium
TTITLE2=C/A/T - Smashed
TTITLE3=Isis Signum feat Neikka RPM - Technique (Club Mix)
TTITLE4=S.I.N.A. - Bewegungsablauf (Floor 4 Version)
TTITLE5=Zombie Girl - Creepy Crawler
TTITLE6=Die Form - Bite of God 2006
TTITLE7=Plastic Noise Experience - I Feel Love (7")
TTITLE8=Headscan - Terra Incognita (Sojourn)
TTITLE9=:Wumpscut: - Jesus Antichristus (Cerebral Apoplexy Mix)
TTITLE10=Life Cried - As We Decay
TTITLE11=E.S.R. - Nothing Stays
TTITLE12=FGFC820 - Pray
TTITLE13=Thirteenth Exile - Diseasespreader (Filthy Bitch Mix)
TTITLE14=Leaether Strip - Slam (The Happy Dance Version)
TTITLE15=Orange Sector - Tanzbefehl (Urban Remix by Heimataerde)
EXTD=
EXTT0=
EXTT1=
EXTT2=
EXTT3=
EXTT4=
EXTT5=
EXTT6=
EXTT7=
EXTT8=
EXTT9=
EXTT10=
EXTT11=
EXTT12=
EXTT13=
EXTT14=
EXTT15=
PLAYORDER=
